<?xml version="1.0" standalone="no"?>
<!DOCTYPE svg PUBLIC "-//W3C//DTD SVG 20010904//EN"
 "http://www.w3.org/TR/2001/REC-SVG-20010904/DTD/svg10.dtd">
<svg version="1.0" xmlns="http://www.w3.org/2000/svg"
 width="800.000000pt" height="800.000000pt" viewBox="0 0 800.000000 800.000000"
 preserveAspectRatio="xMidYMid meet">
<metadata>
Created by potrace 1.14, written by Peter Selinger 2001-2017
</metadata>
<g transform="translate(0.000000,800.000000) scale(0.100000,-0.100000)"
fill="#000000" stroke="none">
<path d="M4173 7928 c-23 -40 -44 -83 -48 -95 -9 -32 -39 -29 -85 7 -48 38
-188 110 -214 110 -11 0 -34 5 -52 12 -26 9 -42 9 -76 -2 -24 -7 -37 -15 -30
-17 27 -10 10 -41 -43 -78 -60 -41 -95 -81 -140 -160 -15 -27 -43 -68 -61 -90
-42 -52 -134 -192 -134 -204 0 -4 -6 -14 -14 -20 -10 -8 -16 -8 -23 1 -55 70
29 260 184 416 35 34 59 62 55 62 -15 0 -138 -125 -178 -180 -72 -101 -104
-183 -104 -270 0 -56 1 -59 53 -111 145 -149 173 -159 418 -151 120 3 180 0
260 -13 126 -22 268 -24 454 -8 204 18 612 11 693 -11 64 -18 152 -17 340 0
43 4 84 1 130 -11 72 -18 275 -113 280 -131 2 -7 -23 -13 -64 -17 -94 -9 -172
-54 -246 -142 -105 -124 -126 -237 -88 -475 32 -193 37 -335 15 -413 -23 -83
-58 -150 -92 -177 -115 -89 -191 -138 -304 -195 -72 -36 -137 -65 -145 -65 -7
0 -14 -5 -14 -11 0 -7 7 -8 18 -4 9 4 28 10 42 12 14 3 39 11 57 19 146 65
214 100 255 129 57 41 62 30 12 -30 -22 -28 -37 -57 -39 -79 -2 -20 -1 -36 1
-36 3 0 34 27 69 60 35 33 71 60 79 60 14 0 165 108 204 147 13 13 29 23 36
23 10 0 16 19 21 59 6 51 2 71 -25 152 -32 92 -89 236 -135 334 -40 86 -46
116 -40 190 8 92 25 166 36 159 5 -3 9 -60 9 -127 0 -141 3 -152 103 -352 35
-71 70 -148 77 -170 7 -22 16 -44 21 -49 17 -19 39 -14 45 10 3 13 10 24 14
24 8 0 22 50 25 90 2 14 -6 36 -15 50 -37 53 -90 169 -90 197 0 17 7 36 16 44
12 9 15 29 14 73 -4 120 -1 168 12 160 7 -4 8 -3 4 5 -4 6 1 27 12 45 19 33
19 46 0 46 -5 0 -20 -25 -34 -55 -30 -64 -54 -73 -54 -19 0 19 -7 43 -16 51
-9 10 -12 18 -5 22 15 9 32 61 24 74 -4 6 0 8 10 4 10 -3 17 -3 17 2 0 5 12
21 28 36 l27 28 -35 -7 c-19 -3 -44 -15 -55 -26 -22 -20 -45 -26 -45 -12 0 14
43 49 90 73 34 17 67 24 135 27 84 4 96 2 155 -25 72 -33 150 -108 151 -145 0
-13 2 -49 5 -81 5 -67 -13 -107 -69 -149 -41 -32 -78 -42 -70 -20 5 12 2 14
-11 9 -10 -4 -21 -7 -24 -7 -4 0 -7 -39 -7 -87 l0 -88 40 -7 c91 -16 97 -13
206 96 15 16 19 17 19 5 0 -8 -21 -39 -47 -68 -56 -63 -132 -105 -173 -96 -23
5 -31 2 -41 -17 -7 -13 -14 -36 -14 -53 -1 -16 -5 -43 -9 -60 -3 -16 -9 -41
-12 -55 -3 -14 -7 -79 -10 -145 -8 -211 -13 -240 -40 -266 -24 -23 -32 -49
-14 -49 6 0 10 4 10 9 0 5 8 7 18 5 9 -3 55 14 101 36 47 23 122 57 168 76 90
37 195 55 207 35 5 -7 64 -11 184 -11 168 0 252 -10 252 -30 0 -17 -43 -22
-146 -15 -86 6 -104 10 -100 22 5 12 0 13 -27 7 -17 -5 -45 -7 -62 -5 -141 16
-257 -13 -440 -111 -100 -53 -302 -234 -338 -303 -17 -33 -64 -81 -72 -73 -3
3 8 23 24 45 16 22 37 55 46 74 22 43 62 87 98 105 15 8 27 23 27 34 0 11 -2
20 -4 20 -2 0 -31 -18 -64 -40 -33 -22 -63 -40 -66 -40 -4 0 -30 -17 -59 -38
-61 -45 -116 -77 -247 -144 -110 -56 -122 -67 -122 -102 0 -15 -6 -26 -14 -26
-8 0 -14 -7 -14 -15 0 -8 -4 -15 -10 -15 -5 0 -7 -7 -4 -15 4 -8 12 -15 20
-15 27 0 14 -21 -18 -27 -42 -8 -183 -142 -198 -188 -6 -18 -18 -39 -27 -47
-20 -16 -93 -114 -93 -124 0 -4 -7 -15 -15 -24 -30 -34 8 -170 52 -187 8 -3
19 0 23 7 12 19 25 5 45 -47 10 -26 26 -66 36 -88 10 -22 27 -67 38 -100 l19
-60 1 42 c1 22 -19 112 -44 200 -86 302 -83 290 -71 314 24 48 354 288 484
353 26 12 97 48 157 78 152 77 236 110 263 103 12 -3 22 -9 22 -14 0 -5 20
-31 44 -57 24 -27 58 -78 76 -114 18 -36 54 -96 79 -135 68 -103 247 -470 266
-545 9 -36 20 -78 25 -95 32 -105 69 -272 89 -400 15 -96 60 -332 71 -375 18
-71 32 -245 26 -324 -20 -275 -26 -339 -40 -411 -24 -127 -21 -179 20 -297 20
-56 42 -110 50 -119 18 -20 17 -33 -2 -88 -36 -105 -105 -199 -261 -358 -152
-154 -308 -271 -505 -376 -101 -55 -122 -59 -80 -16 30 31 48 69 32 69 -5 0
-21 -10 -37 -23 -39 -31 -111 -77 -121 -77 -5 0 -21 -9 -34 -20 -36 -28 -226
-134 -268 -149 -19 -7 -48 -20 -63 -28 -42 -22 -201 -62 -212 -53 -5 4 -19 4
-30 -1 -11 -4 -35 -8 -53 -8 -28 -1 -31 1 -20 12 7 8 24 19 37 26 12 7 20 15
17 18 -3 3 -11 1 -18 -4 -17 -14 -174 -53 -211 -53 -15 0 -38 5 -49 11 -16 8
-28 7 -52 -5 -39 -20 -181 -81 -351 -153 -154 -64 -456 -173 -479 -173 -10 0
-25 -4 -35 -9 -18 -10 -126 15 -172 40 -13 6 -57 42 -96 79 -40 38 -99 89
-130 114 -160 127 -285 225 -328 256 -56 40 -295 270 -295 282 0 5 30 7 67 4
64 -5 68 -4 107 28 23 18 51 38 64 45 27 14 31 47 5 36 -62 -23 -140 -35 -238
-35 -121 0 -154 7 -320 69 -125 46 -125 46 -125 26 0 -13 -4 -14 -21 -4 -45
24 -11 -17 85 -104 159 -142 287 -219 466 -277 89 -29 189 -84 190 -104 0 -14
-145 1 -236 23 -44 11 -89 22 -100 24 -10 2 -26 7 -34 10 -8 3 -44 16 -80 28
-103 35 -337 155 -423 217 -132 95 -368 370 -438 509 -22 46 -48 89 -57 96
-27 20 -60 88 -67 142 -5 28 -11 52 -15 55 -9 6 -91 263 -119 370 -19 76 -41
257 -41 342 0 26 -4 49 -8 52 -5 3 -25 -12 -44 -34 -27 -29 -32 -40 -21 -42
15 -3 20 -26 25 -126 1 -23 6 -31 15 -28 10 4 12 -1 7 -18 -3 -13 -2 -39 3
-57 9 -37 6 -92 -5 -85 -4 2 -8 -10 -9 -27 -2 -30 -1 -30 18 13 13 29 18 35
14 17 -3 -17 -2 -26 4 -23 5 4 12 -21 16 -59 4 -36 12 -65 17 -65 7 0 8 -16 5
-41 -4 -33 -3 -39 9 -35 12 5 14 -1 10 -24 -3 -19 0 -30 8 -30 15 0 48 -155
41 -190 -3 -14 -3 -19 1 -12 8 17 24 15 24 -4 0 -8 4 -12 10 -9 6 3 7 -1 4 -9
-3 -8 4 -29 15 -45 12 -16 21 -39 21 -51 0 -12 7 -28 16 -37 8 -9 13 -21 10
-28 -3 -8 2 -16 9 -19 9 -3 12 -12 9 -21 -4 -9 -3 -15 2 -14 20 3 28 -2 15
-10 -11 -7 -10 -16 10 -47 13 -21 35 -59 49 -85 22 -41 85 -139 141 -221 29
-42 24 -54 -33 -71 -29 -9 -90 -27 -134 -40 l-82 -25 -30 67 c-29 60 -142 354
-179 461 -33 98 -117 318 -140 370 -35 78 -143 395 -143 419 0 12 -4 21 -9 21
-5 0 -18 24 -30 53 -12 28 -26 61 -31 72 -40 87 -130 297 -130 303 0 4 -25 72
-56 152 -31 80 -76 201 -100 270 -24 69 -48 134 -53 145 -4 11 -16 38 -25 60
-10 21 -24 60 -32 85 -8 25 -19 55 -25 68 -23 55 -28 69 -34 97 -3 17 -22 61
-41 99 -19 38 -34 73 -34 77 0 5 -9 29 -20 54 -11 25 -29 65 -40 90 -11 25
-20 49 -20 55 0 6 -4 18 -9 28 -17 34 -49 108 -61 142 -7 19 -21 54 -31 77
-11 24 -19 49 -19 56 0 7 -4 17 -8 23 -8 8 -47 106 -91 229 -44 120 -187 477
-220 545 l-36 75 -3 -74 c-3 -72 3 -96 43 -186 8 -16 37 -100 66 -185 28 -85
74 -201 100 -258 27 -56 49 -104 49 -107 0 -2 18 -41 39 -87 21 -46 47 -101
56 -123 9 -22 27 -62 40 -90 12 -27 28 -66 35 -85 7 -19 17 -39 22 -44 4 -6 8
-18 8 -28 0 -10 5 -18 10 -18 6 0 10 -9 10 -19 0 -11 5 -23 11 -27 6 -3 8 -17
4 -31 -4 -16 -2 -22 5 -18 9 6 14 -14 11 -43 -1 -7 4 -11 11 -10 7 2 13 -6 13
-19 0 -12 4 -25 8 -29 4 -4 7 -19 7 -33 0 -21 2 -23 10 -11 8 13 10 12 10 -3
0 -9 4 -25 9 -35 5 -9 13 -28 18 -42 6 -14 20 -45 33 -70 26 -54 185 -500 194
-550 4 -19 16 -57 26 -85 41 -113 105 -274 133 -335 65 -143 76 -170 122 -290
128 -333 175 -451 260 -645 51 -115 98 -228 106 -250 7 -22 17 -44 21 -50 4
-5 8 -17 8 -27 0 -10 4 -26 9 -36 5 -9 24 -64 41 -122 42 -138 64 -196 117
-310 50 -106 131 -306 223 -545 33 -88 74 -191 90 -230 51 -126 191 -459 211
-504 22 -48 19 -69 -3 -24 -69 135 -226 403 -334 570 -19 29 -34 55 -34 57 0
3 -46 76 -101 163 -100 156 -289 462 -289 468 0 2 -29 50 -64 107 -61 99 -179
299 -227 383 -54 96 -199 388 -195 392 3 3 16 -17 29 -44 32 -62 66 -104 67
-82 0 15 -24 82 -57 156 -14 34 -43 113 -43 119 0 2 4 4 9 4 4 0 21 -28 36
-62 63 -142 76 -167 85 -173 6 -3 10 -2 10 3 0 10 -36 117 -49 147 -23 52 -39
92 -46 115 -4 14 -18 48 -30 75 -12 28 -49 109 -81 180 -66 148 -92 195 -106
195 -11 0 -2 -35 16 -65 7 -11 23 -49 36 -85 13 -36 41 -102 62 -147 21 -46
38 -88 38 -95 0 -14 -39 31 -40 45 0 5 -7 23 -15 40 -8 18 -23 56 -34 84 -11
29 -36 86 -56 127 -19 41 -35 80 -35 88 0 8 -4 18 -8 24 -4 5 -16 34 -26 64
-11 30 -23 59 -27 65 -5 5 -9 15 -9 22 0 8 -35 76 -79 151 -108 189 -117 206
-97 195 14 -8 146 -196 146 -208 0 -3 17 -33 38 -67 21 -35 42 -70 45 -78 4
-8 4 1 1 20 -7 36 -110 251 -147 305 -35 51 -60 76 -67 65 -3 -6 -41 47 -84
117 -43 71 -86 139 -95 152 -9 13 -25 39 -36 57 -11 18 -30 45 -42 61 -107
140 -121 163 -101 163 15 0 79 -78 163 -200 33 -47 67 -93 76 -103 30 -33 29
-1 -1 46 -16 26 -56 102 -89 169 -33 68 -97 184 -142 258 -45 74 -90 162 -101
195 -11 33 -28 76 -39 95 -18 34 -18 28 -19 -459 0 -432 2 -497 15 -511 9 -10
49 -82 89 -161 40 -79 85 -167 99 -194 15 -28 42 -93 61 -146 18 -52 66 -161
105 -241 39 -80 71 -149 71 -152 0 -3 12 -31 26 -62 14 -31 28 -71 31 -90 5
-29 2 -35 -21 -44 -14 -5 -26 -14 -26 -20 0 -5 -6 -10 -14 -10 -8 0 -24 -9
-37 -21 -15 -12 3 -6 45 16 57 30 71 34 82 23 6 -7 86 -159 177 -338 91 -179
179 -352 196 -385 17 -33 31 -67 31 -77 0 -22 -4 -22 -370 -4 -151 8 -333 13
-405 10 -149 -5 -155 -8 -155 -85 l0 -46 43 -6 c83 -12 197 -46 197 -59 0 -3
-6 -8 -13 -11 -6 -2 -3 -3 8 -2 11 2 40 0 65 -5 25 -4 35 -8 22 -9 -37 -2 -16
-18 40 -31 267 -60 358 -73 508 -74 77 0 126 4 148 13 31 13 35 12 58 -10 32
-30 74 -110 74 -142 0 -25 -29 -51 -95 -85 -22 -11 -49 -29 -59 -41 -11 -12
-29 -21 -42 -21 -13 0 -25 -4 -28 -9 -3 -5 -16 -11 -28 -14 -13 -3 -48 -14
-78 -25 -51 -19 -87 -29 -285 -82 -145 -38 -309 -64 -422 -64 l-113 -1 0 -247
c0 -137 2 -248 6 -248 3 0 16 25 29 55 24 54 93 165 103 165 2 0 2 -13 -1 -29
-3 -15 -1 -33 5 -39 13 -13 22 -106 10 -98 -10 6 -10 6 -16 -104 -5 -77 -34
-240 -51 -282 -7 -17 16 -18 393 -18 l400 0 4 25 c3 14 2 25 -2 25 -14 0 -21
100 -9 143 14 49 56 94 72 78 8 -8 8 -20 0 -44 -22 -62 -45 -186 -38 -206 4
-13 15 -21 29 -21 24 0 46 44 46 91 0 13 5 31 11 39 8 11 9 -5 5 -57 l-5 -73
45 0 44 0 1 38 c1 20 1 40 0 44 0 4 4 19 9 32 9 24 8 25 -22 19 -25 -5 -29 -3
-22 8 4 8 9 27 9 44 4 93 6 106 15 100 5 -3 10 -17 10 -30 0 -13 5 -27 11 -31
9 -5 10 10 5 57 -8 73 1 69 28 -11 11 -30 23 -60 28 -66 11 -15 50 -84 85
-152 l27 -52 358 0 c197 0 358 3 358 6 0 29 -139 375 -245 609 -42 94 -84 188
-94 210 -10 22 -21 54 -25 70 -4 17 -21 59 -38 95 -17 36 -53 115 -80 175 -28
61 -86 181 -130 268 -44 87 -78 160 -76 162 5 5 55 -72 185 -285 66 -107 142
-231 170 -275 27 -44 65 -105 83 -135 54 -88 159 -258 213 -345 71 -114 99
-163 195 -335 13 -25 48 -84 76 -132 l51 -88 43 0 c24 0 42 3 40 7 -37 75 -68
151 -68 163 0 6 7 10 15 10 8 0 15 -4 15 -10 0 -5 15 -33 33 -62 18 -29 39
-65 46 -80 l14 -28 775 0 775 0 -5 346 c-4 310 -3 347 11 351 9 2 26 18 38 36
13 17 47 49 75 69 106 76 170 118 178 118 5 0 10 3 12 8 3 7 158 82 171 82 4
0 58 24 120 54 160 77 213 87 439 79 173 -6 186 -5 204 13 28 28 86 69 107 77
9 4 21 17 26 29 5 14 32 34 67 52 33 15 67 33 77 38 23 11 49 -17 41 -44 -3
-9 0 -19 5 -23 7 -3 8 0 5 9 -3 9 -1 16 5 16 7 0 14 -7 17 -15 4 -8 11 -15 16
-15 10 0 6 48 -7 81 -4 12 5 19 37 29 24 7 59 18 78 23 19 6 41 15 48 21 7 5
13 7 15 5 83 -145 96 -176 87 -208 -8 -29 -8 -30 13 -20 14 8 22 9 25 1 2 -6
32 -55 67 -109 36 -54 78 -122 95 -150 18 -29 36 -53 41 -53 11 0 -32 100 -71
163 -17 27 -30 51 -30 54 0 2 -22 37 -49 76 -26 40 -60 93 -75 119 -28 49 -35
93 -14 86 7 -3 21 6 31 19 10 13 26 23 35 24 14 0 14 2 -2 8 -19 7 -18 8 3 23
13 9 20 21 16 27 -4 8 -11 6 -21 -4 -16 -16 -44 -21 -44 -7 0 4 24 23 53 42
28 19 66 46 83 60 17 14 55 43 84 65 106 80 257 219 312 286 19 24 28 29 28
17 0 -23 62 -112 80 -116 8 -1 33 -23 55 -48 90 -104 428 -434 518 -506 16
-13 44 -38 64 -56 20 -18 38 -30 41 -27 3 2 -8 26 -25 53 -24 38 -63 131 -63
149 0 10 25 0 53 -21 18 -13 42 -29 55 -35 19 -10 17 -5 -13 34 -73 97 -68
114 10 34 28 -28 70 -61 95 -72 25 -11 86 -47 135 -81 110 -74 289 -166 322
-166 13 0 38 -7 56 -17 18 -9 54 -17 82 -19 27 -1 51 -7 53 -13 2 -6 17 -11
32 -11 17 0 33 -7 39 -17 7 -13 10 20 11 115 l0 133 -74 33 c-40 19 -76 39
-80 45 -4 6 -16 11 -27 11 -20 0 -54 16 -77 38 -7 6 -23 17 -35 24 -25 13
-137 98 -182 137 -47 41 -96 73 -102 67 -7 -6 -217 205 -304 305 -87 101 -219
287 -219 309 0 6 -5 16 -10 23 -52 61 -170 284 -170 323 0 9 -5 12 -11 8 -8
-5 -10 1 -7 19 3 15 2 24 -2 22 -4 -3 -10 16 -12 40 -6 53 -48 155 -64 155
-15 0 -25 54 -15 82 7 20 9 19 15 -14 4 -21 22 -60 41 -89 39 -57 41 -55 19
16 -8 28 -22 75 -30 105 -8 30 -20 58 -26 61 -9 6 -7 41 6 134 10 70 20 157
22 193 3 37 9 100 14 140 6 40 13 138 17 217 l6 143 25 -23 c16 -15 55 -29
121 -43 53 -12 134 -34 181 -51 120 -42 234 -70 315 -79 101 -10 256 -6 285 7
22 10 19 11 -25 8 -44 -2 -50 0 -50 18 -1 39 -16 63 -50 80 -19 9 -35 18 -35
20 0 11 87 65 105 65 15 0 39 -24 80 -80 32 -44 62 -80 66 -80 4 0 50 -37 102
-83 52 -45 116 -97 141 -116 l48 -33 -4 28 c-2 18 -9 29 -18 29 -15 0 -380
352 -380 366 0 5 38 49 84 97 85 90 126 153 126 193 0 12 7 30 15 39 8 9 17
32 20 51 5 27 -2 18 -32 -41 -51 -102 -92 -158 -155 -215 -83 -74 -140 -103
-207 -103 -31 0 -76 -7 -101 -15 -67 -23 -193 -47 -245 -47 -25 0 -62 7 -83
16 -20 9 -66 25 -102 36 -125 38 -211 98 -252 174 -36 67 -95 244 -114 345
-23 119 -15 245 20 323 14 32 26 65 26 72 0 16 22 57 63 121 15 24 62 71 105
104 126 101 235 142 412 154 84 6 105 4 187 -19 109 -31 204 -80 255 -133 20
-21 61 -75 92 -121 135 -201 172 -305 163 -456 -3 -50 -8 -104 -12 -121 -5
-29 -5 -29 6 -5 22 49 33 137 33 268 1 114 3 132 17 132 9 0 30 7 47 16 l32
15 0 85 c0 46 -4 84 -9 84 -6 0 -6 12 0 32 5 18 9 62 8 98 0 64 0 65 -17 40
-9 -13 -26 -34 -37 -45 -11 -11 -19 -23 -18 -27 4 -11 2 -10 -45 6 -22 8 -42
12 -45 9 -3 -2 -10 5 -17 16 -6 12 -17 21 -25 21 -8 0 -63 22 -122 49 -189 87
-291 103 -552 91 l-104 -5 -23 105 c-13 58 -33 132 -44 164 -11 33 -20 72 -20
87 0 15 20 68 45 117 56 112 107 161 236 225 52 25 85 46 74 46 -11 1 -33 -7
-50 -17 -42 -25 -115 -53 -115 -44 0 4 26 36 58 72 32 36 65 75 74 88 8 12 36
45 62 72 25 27 46 53 46 58 0 5 10 17 21 28 36 32 133 184 178 279 56 117 55
113 95 237 63 189 86 330 86 514 0 98 -3 117 -19 133 -10 10 -21 30 -25 45 -3
14 -31 51 -61 81 -30 30 -55 59 -55 64 0 6 -15 25 -32 44 -49 52 -107 69 -240
71 -107 1 -116 -1 -171 -29 -34 -17 -90 -61 -132 -102 -39 -40 -75 -73 -79
-73 -4 0 -33 17 -64 39 -77 52 -126 76 -197 96 -33 10 -62 20 -65 24 -14 17
-304 -3 -375 -26 -98 -31 -201 -85 -245 -127 -25 -23 -61 -54 -80 -68 -19 -14
-55 -46 -80 -72 -25 -25 -47 -46 -50 -46 -3 0 -6 28 -7 63 -1 34 -6 74 -11 88
-9 23 -4 32 51 95 105 121 166 225 216 371 37 109 37 113 11 113 -17 0 -20 -7
-20 -42 0 -33 -17 -76 -69 -183 -38 -77 -81 -151 -95 -164 -14 -14 -26 -30
-26 -37 0 -17 -81 -87 -90 -77 -9 10 -36 87 -56 160 -7 28 -22 66 -32 85 -11
19 -23 48 -26 65 -4 16 -24 53 -46 81 -21 29 -41 65 -45 82 l-7 30 -599 0
-599 0 -39 -50 c-21 -27 -56 -90 -77 -140 -20 -50 -41 -93 -46 -96 -17 -10
-21 29 -8 84 21 94 30 119 61 161 18 26 24 41 16 41 -7 0 -32 -33 -54 -72z
m-555 -197 c-9 -26 -123 -141 -140 -141 -11 0 -28 -5 -39 -11 -19 -9 -19 -9
-10 10 6 11 16 23 21 26 6 4 8 10 5 15 -3 4 2 10 10 14 8 3 15 12 15 20 0 16
36 42 88 60 47 17 54 18 50 7z m160 -65 c-13 -7 -33 -18 -45 -24 -19 -11 -22
-10 -17 3 8 20 54 44 72 38 9 -4 6 -9 -10 -17z m22 -36 c0 -5 -7 -10 -16 -10
-8 0 -12 5 -9 10 3 6 10 10 16 10 5 0 9 -4 9 -10z m3681 -41 c55 -28 181 -182
193 -236 4 -16 2 -78 -4 -139 -7 -82 -16 -121 -35 -157 -33 -65 -113 -165
-137 -173 -11 -3 -17 -8 -14 -11 3 -3 0 -11 -7 -17 -7 -7 -25 -29 -42 -50 -26
-32 -123 -96 -147 -96 -5 0 3 16 17 35 15 18 28 41 29 49 1 9 11 26 23 38 11
13 30 41 41 63 11 22 37 58 56 80 20 22 36 46 36 53 0 6 5 12 10 12 6 0 10 5
10 10 0 6 9 30 21 53 50 99 63 221 31 289 -9 20 -33 56 -52 79 -77 95 -112
119 -171 119 -48 0 -33 19 19 23 56 4 76 0 123 -24z m-443 -121 c-37 -52 -48
-97 -48 -194 0 -84 2 -92 25 -114 14 -13 25 -19 25 -14 0 5 5 1 10 -8 6 -9 25
-20 42 -23 18 -4 40 -12 50 -18 13 -9 21 -7 35 5 10 9 22 16 27 16 34 -3 79
100 55 127 -6 5 -9 2 -9 -8 0 -26 -22 -67 -36 -67 -9 0 -11 14 -7 50 4 41 2
50 -10 50 -14 0 -14 5 -5 33 6 17 15 37 19 43 5 5 6 27 2 47 -5 33 -3 38 21
47 36 13 42 13 60 -6 10 -9 16 -33 16 -59 0 -24 4 -46 9 -50 19 -11 24 -101
11 -190 -7 -49 -30 -151 -52 -225 -23 -74 -42 -148 -43 -165 -1 -20 -9 -33
-23 -40 -12 -5 -22 -13 -22 -17 0 -5 -7 -8 -15 -8 -8 0 -15 -4 -15 -10 0 -13
13 -13 27 1 6 6 21 8 33 4 21 -7 19 -10 -31 -61 -29 -30 -62 -54 -72 -54 -35
0 -103 -49 -172 -126 -39 -42 -73 -81 -77 -87 -4 -6 -10 -9 -13 -5 -4 3 1 17
9 31 16 23 13 57 -5 57 -13 0 -108 -60 -116 -73 -9 -14 -29 -27 -93 -61 -25
-13 -105 -67 -177 -120 -73 -53 -135 -96 -138 -96 -4 0 7 17 24 37 33 40 42
68 14 40 -34 -33 -93 -66 -108 -61 -19 8 -20 -5 11 149 17 87 24 152 22 198
-3 63 -3 66 13 50 10 -10 38 -58 64 -108 26 -49 53 -97 61 -106 17 -19 18 -46
2 -52 -10 -3 -10 -7 -1 -17 9 -10 15 -10 27 3 9 9 16 19 16 24 0 18 168 170
239 216 40 27 100 59 134 72 34 13 81 33 104 44 23 12 47 21 53 21 14 0 71 91
125 202 25 51 50 101 55 110 6 10 10 28 10 40 0 12 10 41 21 65 12 24 19 46
17 49 -3 2 -20 -4 -39 -13 -23 -12 -59 -17 -112 -18 -74 0 -80 2 -102 28 -13
15 -28 27 -33 27 -5 0 -23 28 -40 63 -25 50 -30 69 -23 92 7 30 7 30 14 5 9
-34 16 -23 38 65 19 77 44 130 82 173 31 34 42 26 15 -10z m132 -73 c0 -14
-30 -62 -49 -79 -46 -41 -32 10 17 64 17 18 32 25 32 15z m-561 -449 c28 -15
51 -30 51 -35 0 -5 -14 -14 -30 -21 -39 -16 -115 -9 -200 19 -36 11 -82 23
-102 26 -21 3 -38 10 -38 15 0 15 81 26 176 24 76 -2 101 -7 143 -28z m-1017
-218 c-8 -8 -9 -4 -5 13 4 13 8 18 11 10 2 -7 -1 -18 -6 -23z m1513 -251 c-24
-40 -69 -99 -100 -132 -67 -72 -58 -47 25 64 33 44 60 84 60 87 0 12 36 53 47
54 7 0 -7 -33 -32 -73z m-626 -19 c42 -6 80 -14 84 -18 13 -11 -84 -169 -100
-163 -7 3 -13 14 -13 24 0 11 -18 49 -40 85 -43 72 -51 100 -23 90 9 -4 51
-12 92 -18z m772 -386 c-6 -2 -17 -10 -25 -17 -7 -8 -16 -11 -20 -8 -3 4 -6 2
-6 -3 0 -6 -18 -20 -40 -33 -22 -12 -40 -17 -40 -12 0 6 4 11 9 11 5 0 12 7
15 16 7 17 0 14 -54 -25 -19 -14 -42 -33 -50 -42 -24 -28 -205 -68 -358 -79
-75 -6 -177 -15 -225 -20 -48 -5 -94 -7 -102 -4 -8 3 -49 -5 -92 -19 -124 -39
-123 -39 -123 -27 0 23 57 60 91 60 12 0 83 18 158 39 128 36 144 39 271 39
91 0 155 5 196 16 34 9 72 16 85 16 13 0 68 23 122 50 55 28 104 50 110 51 7
0 28 11 47 23 l35 23 3 -25 c2 -15 -1 -28 -7 -30z m-1021 -176 c0 -3 -4 -8
-10 -11 -5 -3 -10 -1 -10 4 0 6 5 11 10 11 6 0 10 -2 10 -4z m635 -151 c-16
-7 -34 -10 -39 -7 -12 7 21 21 49 20 15 0 13 -3 -10 -13z m-169 -202 c-4 -32
-11 -106 -15 -164 -7 -103 -25 -159 -51 -159 -6 0 -10 -7 -10 -15 0 -23 -9
-19 -59 27 -66 60 -99 116 -93 156 3 26 1 32 -15 32 -10 0 -24 -5 -31 -12 -6
-6 -15 -9 -18 -5 -17 16 242 192 290 196 5 1 6 -24 2 -56z m-266 -343 c34
-141 56 -184 129 -254 17 -17 31 -34 31 -40 0 -6 -5 -5 -12 2 -15 15 -32 16
-23 2 10 -15 -4 -12 -80 18 -38 16 -107 41 -152 56 -68 23 -92 37 -145 86 -34
32 -73 77 -86 99 l-22 41 50 25 c27 14 55 25 62 26 7 0 40 20 73 45 33 24 70
48 82 54 11 5 25 14 29 21 11 19 28 -28 64 -181z m-4997 -1986 c3 -3 3 -13 0
-21 -5 -12 -7 -12 -14 -1 -15 23 -4 40 14 22z m7 -80 c0 -8 -4 -12 -10 -9 -5
3 -10 10 -10 16 0 5 5 9 10 9 6 0 10 -7 10 -16z m5658 -1496 c17 -22 32 -45
32 -52 -1 -12 -65 57 -81 86 -17 31 14 10 49 -34z m-6950 -45 c-10 -2 -26 -2
-35 0 -10 3 -2 5 17 5 19 0 27 -2 18 -5z m7155 -103 c43 -40 13 -40 -33 0 -27
22 -31 29 -17 30 10 0 32 -13 50 -30z m-1508 -39 c-3 -6 -11 -11 -17 -11 -6 0
-6 6 2 15 14 17 26 13 15 -4z m-4783 -845 c12 -18 9 -36 -7 -36 -24 0 -65 22
-65 36 0 16 62 16 72 0z m13 -116 c7 -12 -15 -89 -46 -156 -23 -48 -25 -50
-42 -34 -15 15 -16 19 -3 29 8 7 18 26 21 42 4 17 11 26 17 23 8 -5 9 8 6 40
-5 43 4 62 15 34 3 -7 6 -3 6 10 1 23 15 30 26 12z m44 -132 c-7 -21 -16 -38
-22 -38 -11 0 0 81 16 119 l11 26 4 -35 c2 -19 -2 -52 -9 -72z m-49 -108 c0
-5 -5 -10 -11 -10 -5 0 -7 5 -4 10 3 6 8 10 11 10 2 0 4 -4 4 -10z"/>
<path d="M7276 7297 c3 -10 9 -15 12 -12 3 3 0 11 -7 18 -10 9 -11 8 -5 -6z"/>
<path d="M7165 6799 c-4 -6 -5 -12 -2 -15 2 -3 7 2 10 11 7 17 1 20 -8 4z"/>
<path d="M7108 6679 c-21 -38 -35 -69 -32 -69 3 0 21 7 40 16 27 13 32 19 24
33 -6 13 -4 25 6 39 9 13 12 28 7 36 -6 11 -18 -4 -45 -55z"/>
<path d="M7165 6060 c-3 -5 -2 -10 4 -10 5 0 13 5 16 10 3 6 2 10 -4 10 -5 0
-13 -4 -16 -10z"/>
<path d="M6657 5553 c-10 -9 -9 -23 2 -23 5 0 11 7 15 15 5 15 -5 20 -17 8z"/>
<path d="M961 354 c0 -11 3 -14 6 -6 3 7 2 16 -1 19 -3 4 -6 -2 -5 -13z"/>
<path d="M6474 7898 c59 -120 74 -108 26 20 -27 69 -35 82 -54 82 -22 0 -21
-5 28 -102z"/>
<path d="M268 7909 c-79 -12 -133 -40 -204 -107 l-60 -59 0 -319 c1 -282 3
-326 20 -384 10 -36 30 -102 43 -148 26 -91 152 -346 251 -510 35 -56 67 -114
72 -128 6 -14 23 -45 40 -68 101 -149 296 -271 545 -345 61 -17 148 -43 195
-57 47 -14 99 -30 115 -35 116 -40 215 -48 215 -17 0 28 -89 140 -157 198 -48
41 -86 82 -101 112 l-24 46 17 114 c9 62 18 192 20 288 3 96 8 194 13 217 9
42 9 42 -22 48 -57 11 -126 47 -126 66 0 10 -5 21 -10 24 -7 4 -9 35 -7 77 3
62 2 68 -10 52 -8 -11 -12 -27 -10 -36 3 -9 -1 -19 -9 -22 -8 -3 -14 -13 -14
-23 0 -10 -8 -41 -18 -69 -27 -71 -46 -232 -40 -327 9 -127 -3 -137 -58 -49
-20 31 -52 80 -70 109 -19 28 -34 57 -34 63 0 6 -13 39 -30 73 -65 137 -87
298 -95 702 -5 273 -10 290 -140 420 -47 47 -72 64 -115 77 -76 23 -126 27
-192 17z m235 -138 c15 -58 6 -126 -18 -146 -6 -5 -16 -19 -22 -30 -11 -23 -5
-235 7 -235 12 0 109 108 124 139 30 56 37 109 26 172 -6 34 -9 63 -6 66 8 9
43 -55 61 -113 17 -55 17 -55 -9 -110 -14 -30 -26 -59 -26 -64 0 -6 -7 -10
-15 -10 -9 0 -12 -6 -9 -15 4 -9 0 -15 -10 -15 -9 0 -13 -6 -10 -13 2 -7 -4
-22 -16 -32 -11 -10 -20 -15 -20 -11 0 4 -27 -16 -61 -46 l-61 -53 7 -52 c7
-56 -1 -86 -16 -62 -5 8 -9 28 -9 46 0 17 -6 35 -12 40 -16 9 -49 5 -65 -9
-20 -16 -15 -87 8 -125 23 -37 113 -113 133 -113 7 0 18 -11 24 -25 6 -14 17
-25 23 -25 19 0 205 -193 243 -252 54 -86 45 -99 -21 -29 -31 34 -61 61 -67
61 -7 0 -18 8 -27 18 -8 9 -55 53 -103 97 -48 44 -111 101 -138 128 -28 26
-57 47 -64 47 -17 0 -17 -10 -4 -120 10 -82 12 -86 53 -122 23 -21 49 -38 58
-38 9 0 40 -17 70 -39 30 -21 77 -50 104 -64 28 -14 75 -47 105 -73 75 -65
190 -183 190 -195 0 -25 -19 -13 -253 158 -40 29 -103 74 -142 99 -38 26 -82
56 -97 66 -24 16 -58 24 -58 14 0 -2 7 -22 15 -45 8 -22 12 -41 10 -41 -8 0
-35 59 -35 76 0 29 -48 82 -93 103 -35 16 -127 93 -127 107 0 2 33 -16 72 -41
74 -46 108 -56 108 -31 0 8 -9 42 -19 77 -11 35 -24 89 -30 120 -7 33 -27 79
-51 115 -37 57 -66 139 -51 148 3 2 25 9 49 15 23 7 42 17 42 24 0 7 5 41 10
76 12 85 5 95 -64 96 -79 2 -111 27 -111 86 1 24 4 53 9 64 6 17 10 15 27 -22
21 -47 49 -70 95 -78 35 -7 78 20 81 50 1 11 7 48 13 83 6 35 8 68 4 73 -4 6
-20 -3 -40 -22 -40 -39 -51 -34 -31 14 16 36 79 87 108 87 10 0 19 6 22 13 3
10 9 10 26 0 30 -19 34 -16 26 15 l-6 27 25 -25 c14 -14 31 -49 39 -79z m382
-1736 c32 -27 56 -42 60 -35 10 17 30 11 61 -17 18 -17 30 -39 31 -56 0 -16 9
-37 19 -48 25 -28 -1 -24 -40 6 -18 14 -37 25 -42 25 -17 0 -154 136 -154 153
0 25 6 22 65 -28z"/>
<path d="M355 7341 c-3 -5 -1 -12 5 -16 5 -3 10 -2 10 4 0 5 8 12 18 14 13 4
12 5 -5 6 -12 0 -24 -3 -28 -8z"/>
<path d="M3525 7890 c-3 -5 -2 -10 4 -10 5 0 13 5 16 10 3 6 2 10 -4 10 -5 0
-13 -4 -16 -10z"/>
<path d="M1335 7199 c-16 -4 -42 -10 -56 -13 -31 -7 -112 -84 -140 -133 -31
-55 -17 -49 27 12 38 53 96 96 110 82 4 -4 -4 -16 -19 -27 -43 -34 -87 -110
-87 -150 0 -51 33 -121 68 -147 28 -21 31 -21 44 -5 8 9 20 37 27 62 31 118
86 220 117 220 20 0 36 -37 39 -89 2 -25 7 -71 10 -102 6 -47 4 -61 -16 -98
-41 -75 -49 -86 -49 -73 0 6 -4 12 -10 12 -5 0 -10 -8 -10 -17 0 -9 -9 -36
-20 -59 -24 -49 -44 -244 -26 -256 6 -4 27 7 46 26 19 19 63 60 98 93 123 114
189 243 172 335 -4 24 -14 75 -20 113 -7 39 -19 87 -27 107 -8 20 -13 45 -11
54 2 15 10 10 41 -22 59 -59 79 -114 85 -222 5 -101 -8 -161 -41 -197 -11 -11
-35 -43 -53 -72 -23 -36 -55 -66 -101 -96 -38 -24 -86 -60 -107 -80 -22 -21
-43 -37 -48 -37 -4 0 -15 -14 -24 -31 -12 -25 -15 -46 -9 -98 4 -36 11 -70 15
-76 4 -5 16 -39 25 -73 10 -36 26 -69 37 -75 10 -7 18 -15 18 -18 0 -3 20 -37
45 -75 69 -104 148 -174 198 -174 22 0 44 -16 93 -66 64 -65 93 -79 60 -30
-21 33 -21 50 2 41 9 -4 37 -13 62 -20 25 -7 90 -32 144 -54 55 -23 107 -43
115 -44 9 -1 65 -26 124 -55 114 -55 150 -65 126 -36 -13 16 -163 95 -176 93
-5 -1 -18 2 -30 6 -28 9 -35 49 -18 105 8 25 24 101 36 170 11 69 25 139 30
155 5 17 13 66 18 110 6 55 20 105 45 160 l35 80 -27 12 c-15 7 -37 12 -50 13
-13 0 -38 15 -56 35 -19 19 -41 35 -50 35 -16 0 -16 -2 1 -32 10 -18 26 -41
36 -52 9 -11 17 -27 17 -37 0 -12 -64 -103 -127 -178 -2 -3 -9 1 -15 7 -18 18
-25 15 -31 -15 -3 -16 -10 -48 -17 -72 -10 -41 -3 -90 19 -126 8 -15 11 -75 3
-75 -15 1 -90 59 -148 115 -34 33 -76 70 -93 83 -17 13 -31 27 -31 31 0 5 10
23 23 42 12 19 33 63 46 99 34 95 67 155 108 201 l36 40 70 -7 c75 -7 83 2 26
31 -37 20 -90 12 -141 -21 -21 -13 -41 -24 -46 -24 -17 0 -153 -133 -183 -181
-18 -27 -36 -46 -40 -42 -13 15 25 204 56 278 19 46 30 148 29 275 0 94 -5
125 -23 172 -30 77 -72 128 -134 161 -46 24 -61 27 -147 26 -52 -1 -108 -5
-125 -10z m742 -1251 c-3 -8 -6 -5 -6 6 -1 11 2 17 5 13 3 -3 4 -12 1 -19z"/>
<path d="M2 6950 c-1 -25 3 -61 8 -80 14 -57 71 -214 81 -224 5 -6 9 -17 9
-25 1 -17 69 -162 70 -147 0 5 -21 61 -46 125 -42 103 -105 306 -117 371 -2
15 -5 6 -5 -20z"/>
<path d="M5904 6845 c23 -23 47 -59 54 -79 14 -38 8 -62 -8 -36 -15 24 -19 7
-9 -40 6 -25 10 -57 9 -72 0 -32 27 -51 68 -46 30 3 61 53 62 98 0 27 -57 150
-70 150 -5 0 -21 11 -37 23 -15 13 -46 28 -69 34 l-40 10 40 -42z"/>
<path d="M3113 6796 c-16 -29 2 -141 31 -190 15 -25 33 -46 41 -46 8 0 15 -6
15 -14 0 -8 10 -23 23 -33 12 -10 39 -39 60 -65 38 -48 94 -94 103 -85 2 2
-10 35 -28 73 -28 60 -33 83 -37 179 -5 95 -8 107 -19 88 -7 -12 -18 -48 -25
-80 -8 -32 -18 -58 -23 -58 -5 0 -19 19 -31 43 l-21 43 -9 -28 c-9 -26 -10
-23 -21 32 -7 33 -20 82 -31 109 -15 40 -20 46 -28 32z"/>
<path d="M5848 6493 c6 -2 18 -2 25 0 6 3 1 5 -13 5 -14 0 -19 -2 -12 -5z"/>
<path d="M5898 6493 c6 -2 18 -2 25 0 6 3 1 5 -13 5 -14 0 -19 -2 -12 -5z"/>
<path d="M2000 6465 c-7 -9 -11 -18 -8 -20 9 -10 38 7 38 21 0 18 -14 18 -30
-1z"/>
<path d="M5743 6420 c-6 -15 -7 -26 -1 -29 15 -5 20 5 16 31 l-5 23 -10 -25z"/>
<path d="M3207 6289 c18 -5 35 -14 38 -19 3 -6 13 -10 22 -10 14 0 14 3 -2 20
-12 13 -30 20 -54 19 l-36 -1 32 -9z"/>
<path d="M5800 6267 c0 -8 7 -20 15 -27 12 -10 15 -10 15 3 0 8 -7 20 -15 27
-12 10 -15 10 -15 -3z"/>
<path d="M2910 6241 c-74 -31 -146 -51 -186 -51 -29 0 -44 -7 -72 -37 -67 -71
-103 -194 -81 -277 28 -106 32 -115 60 -126 56 -23 59 11 14 140 -32 94 -39
153 -21 187 30 59 71 82 218 123 64 18 128 45 128 55 0 8 -13 5 -60 -14z"/>
<path d="M3326 6185 c-3 -8 -18 -15 -33 -15 -59 -1 -154 -61 -205 -130 -25
-33 -35 -40 -52 -35 -12 3 -55 8 -96 11 -66 4 -78 2 -100 -16 l-25 -22 45 8
c94 15 179 5 213 -24 9 -8 20 -12 24 -9 3 4 12 2 20 -5 18 -14 25 -6 28 32 2
19 18 47 41 74 22 24 47 55 56 69 14 20 29 26 78 32 62 7 69 12 48 33 -16 16
-35 15 -42 -3z"/>
<path d="M4115 6160 c3 -5 11 -10 16 -10 6 0 7 5 4 10 -3 6 -11 10 -16 10 -6
0 -7 -4 -4 -10z"/>
<path d="M3850 6140 l-35 -19 31 -11 c17 -6 37 -23 45 -38 7 -15 22 -37 32
-48 15 -18 19 -39 20 -110 1 -77 -3 -97 -26 -148 -15 -32 -27 -60 -27 -62 0
-2 9 -4 21 -4 17 0 33 7 88 37 12 7 18 96 10 146 -12 74 -38 125 -89 177 -40
41 -49 63 -30 75 12 7 13 25 3 25 -5 -1 -24 -9 -43 -20z"/>
<path d="M1961 6114 c0 -11 3 -14 6 -6 3 7 2 16 -1 19 -3 4 -6 -2 -5 -13z"/>
<path d="M4174 6104 c5 -10 16 -41 26 -69 31 -89 68 -162 69 -138 1 12 -3 24
-8 27 -5 4 -12 25 -16 49 -8 46 -47 131 -67 143 -8 5 -9 2 -4 -12z"/>
<path d="M7395 5961 c-5 -5 -25 -11 -44 -13 -19 -2 -36 -9 -39 -15 -5 -18 48
-17 86 2 49 25 195 13 317 -25 134 -43 166 -61 230 -128 l55 -56 0 41 c0 34
-4 43 -22 49 -13 4 -42 23 -64 43 -44 38 -142 79 -229 94 -79 14 -279 20 -290
8z"/>
<path d="M708 5872 c12 -15 42 -48 69 -72 84 -76 201 -188 207 -199 5 -7 1 -8
-11 -3 -21 8 -116 64 -123 72 -3 3 -20 10 -39 17 -33 12 -33 12 -16 -7 10 -11
22 -20 26 -20 5 0 25 -12 46 -26 43 -29 138 -74 233 -111 36 -14 85 -34 110
-45 25 -12 56 -24 70 -28 29 -8 30 -24 9 -133 -12 -63 -16 -69 -48 -84 -19 -9
-59 -41 -90 -71 -54 -52 -41 -46 52 25 52 39 67 41 67 7 0 -45 42 -151 80
-201 40 -53 120 -106 192 -128 27 -8 63 -25 80 -38 18 -14 61 -38 95 -55 l61
-29 20 41 c12 22 24 52 27 66 16 63 113 260 131 267 20 7 16 10 134 -92 116
-100 165 -146 221 -210 l44 -50 -1 -80 c-1 -75 -13 -215 -34 -420 -18 -177
-33 -606 -21 -618 18 -18 22 -4 25 84 1 46 8 94 14 106 16 29 15 61 -3 79 -11
12 -13 33 -9 97 6 89 39 313 55 363 5 17 9 40 9 52 0 13 15 45 34 73 39 56 55
126 37 165 -6 14 -11 33 -11 42 0 17 -32 64 -133 195 -57 74 -158 177 -210
214 -36 25 -131 63 -159 63 -23 0 -248 100 -248 110 0 5 28 0 63 -10 124 -36
317 -76 317 -65 0 17 -41 76 -70 101 -81 68 -235 156 -214 122 5 -8 2 -9 -12
-4 -38 16 -80 28 -119 36 -22 4 -57 15 -79 24 -34 15 -38 16 -33 2 7 -19 3
-20 -23 -6 -12 6 -16 17 -13 30 5 17 -9 26 -91 65 -53 25 -101 45 -105 45 -5
0 -11 6 -14 14 -13 33 111 17 179 -23 25 -15 34 -17 34 -7 0 18 -134 77 -188
84 -23 2 -45 9 -48 13 -3 5 -29 9 -57 9 -33 1 -89 14 -152 36 -55 19 -122 41
-150 48 -27 7 -69 22 -92 34 -23 12 -50 22 -60 22 -10 0 -33 9 -52 21 l-33 20
20 -29z m803 -640 c15 -9 54 -39 88 -66 l62 -50 -77 -38 c-43 -21 -87 -47 -99
-58 -34 -32 -42 -24 -49 43 -5 54 -9 166 -7 191 1 11 50 -2 82 -22z"/>
<path d="M5827 5762 c-9 -10 -17 -23 -17 -29 0 -6 -22 -28 -50 -49 -27 -21
-50 -41 -50 -45 0 -4 11 -9 25 -11 17 -4 25 -1 25 8 0 8 7 14 15 14 8 0 15 -4
15 -10 0 -5 -4 -10 -10 -10 -5 0 -10 -7 -10 -15 0 -8 5 -15 10 -15 6 0 10 6
10 12 0 7 16 38 35 69 26 43 33 62 27 79 -8 21 -8 21 -25 2z"/>
<path d="M7520 5737 c0 -18 -5 -38 -11 -44 -7 -7 -7 -13 -1 -17 13 -8 45 61
38 80 -10 26 -26 14 -26 -19z"/>
<path d="M727 5729 c12 -12 24 -21 27 -18 2 2 -8 13 -22 23 l-27 19 22 -24z"/>
<path d="M4360 5726 c0 -8 5 -18 11 -22 12 -7 5 -69 -16 -142 -11 -37 -22 -51
-49 -66 -38 -20 -56 -15 -57 17 0 12 -10 -12 -21 -53 -11 -41 -28 -93 -38
-115 -11 -22 -26 -65 -34 -95 -40 -147 -57 -181 -129 -252 -69 -67 -104 -87
-128 -72 -7 4 -36 6 -65 5 -68 -3 -127 15 -160 50 -41 43 -58 39 -50 -13 7
-45 3 -59 -60 -182 -40 -78 -80 -101 -151 -86 -45 9 -213 28 -313 34 -52 4
-133 33 -207 76 -69 39 -94 86 -95 179 -1 64 0 71 35 112 20 25 40 57 46 71
10 26 9 27 -15 18 -35 -14 -42 -13 -48 8 -4 12 -17 17 -48 18 -50 1 -126 20
-146 36 -43 36 -91 194 -73 241 29 76 32 97 19 114 -16 21 -70 25 -81 6 -5 -7
-12 -11 -18 -8 -15 10 -10 -25 10 -64 22 -44 44 -119 65 -226 15 -75 19 -83
63 -122 27 -24 76 -57 111 -74 54 -28 61 -35 55 -53 -11 -30 -5 -117 11 -163
8 -22 12 -51 9 -65 -4 -22 5 -34 57 -77 33 -28 75 -59 93 -68 l32 -16 -40 -18
c-22 -10 -43 -20 -46 -21 -4 -2 -10 -14 -14 -27 -7 -23 -6 -23 46 -16 30 3 88
19 129 35 65 24 95 28 222 33 l147 6 46 -39 c51 -44 75 -52 51 -18 -22 32 -20
44 12 57 28 12 113 89 169 154 31 37 32 37 108 37 70 0 81 3 128 33 29 19 65
41 80 51 16 10 41 37 55 61 15 25 30 45 34 45 3 0 12 -17 18 -37 7 -21 22 -51
34 -68 53 -72 45 -119 -31 -178 -81 -62 -97 -77 -91 -82 8 -8 69 16 109 42 68
45 96 156 61 236 -33 76 -37 127 -12 159 11 15 38 52 58 83 33 49 47 60 112
88 151 66 260 122 260 133 0 7 -7 15 -16 18 -24 9 -144 7 -189 -4 -22 -5 -42
-7 -44 -4 -3 2 2 26 11 52 20 57 31 177 18 200 -5 9 -11 25 -14 35 -6 21 -26
23 -26 3z"/>
<path d="M2460 5719 c0 -5 5 -7 10 -4 6 3 10 8 10 11 0 2 -4 4 -10 4 -5 0 -10
-5 -10 -11z"/>
<path d="M4080 5690 c0 -5 7 -10 16 -10 8 0 12 5 9 10 -3 6 -10 10 -16 10 -5
0 -9 -4 -9 -10z"/>
<path d="M2612 5661 c-31 -42 -28 -59 4 -22 14 17 24 36 22 42 -2 5 -13 -3
-26 -20z"/>
<path d="M3397 5585 c-9 -13 -13 -26 -8 -29 13 -8 42 4 35 15 -3 5 -1 9 4 9 5
0 9 7 9 15 0 22 -20 18 -40 -10z"/>
<path d="M2 5528 c0 -44 4 -76 11 -80 6 -4 12 -17 12 -29 0 -12 6 -24 13 -27
10 -3 13 3 10 19 -2 13 3 29 11 35 8 6 11 16 7 23 -6 9 -11 9 -24 -1 -13 -12
-14 -10 -4 9 16 29 15 46 -2 40 -9 -4 -12 0 -9 11 2 10 -2 30 -10 45 -14 26
-14 24 -15 -45z m15 -60 c-3 -7 -5 -2 -5 12 0 14 2 19 5 13 2 -7 2 -19 0 -25z"/>
<path d="M3303 5541 c-3 -12 -9 -21 -13 -21 -14 0 -20 -31 -9 -51 8 -16 13
-18 24 -9 8 6 22 10 32 8 26 -4 46 11 34 25 -5 7 -11 23 -13 37 -4 33 -47 42
-55 11z"/>
<path d="M2442 5509 c2 -7 10 -15 17 -17 8 -3 12 1 9 9 -2 7 -10 15 -17 17 -8
3 -12 -1 -9 -9z"/>
<path d="M61 5399 c-14 -32 -7 -54 9 -29 9 13 14 60 7 60 -1 0 -8 -14 -16 -31z"/>
<path d="M92 5375 c0 -16 2 -22 5 -12 2 9 2 23 0 30 -3 6 -5 -1 -5 -18z"/>
<path d="M70 5335 c0 -6 30 -67 36 -74 2 -2 11 5 21 15 17 17 17 18 0 11 -14
-5 -20 0 -29 23 -8 25 -28 42 -28 25z"/>
<path d="M110 5327 c0 -9 4 -18 9 -21 5 -4 8 1 7 9 -3 21 -16 31 -16 12z"/>
<path d="M127 5263 c-14 -13 -7 -53 9 -53 9 0 12 -5 8 -12 -5 -10 -4 -10 6 -1
11 10 10 18 -2 43 -8 16 -18 27 -21 23z"/>
<path d="M0 5096 l0 -107 40 -60 c45 -66 43 -75 -7 -27 l-33 32 0 -40 c0 -33
12 -54 75 -138 60 -80 75 -106 75 -135 1 -47 26 -102 85 -179 26 -35 45 -65
42 -68 -8 -9 -63 53 -135 153 -38 54 -86 116 -106 138 l-35 40 -1 -41 c0 -35
7 -49 49 -95 27 -30 90 -103 140 -164 51 -60 102 -121 115 -135 39 -44 182
-233 222 -295 21 -33 42 -62 45 -65 4 -3 9 -15 13 -27 4 -13 11 -23 16 -23 5
0 2 12 -6 28 -7 15 -14 31 -14 35 0 11 87 -90 108 -125 9 -16 20 -28 24 -28 4
0 8 -6 8 -13 0 -8 7 -14 15 -14 33 0 12 47 -67 150 -116 150 -128 168 -123
178 3 4 -6 28 -20 54 -14 25 -28 62 -31 82 -2 19 -24 65 -48 102 -24 36 -49
77 -56 91 -7 14 -38 64 -69 111 -31 47 -61 94 -68 105 -7 10 -26 40 -42 65
-28 44 -28 46 -8 41 18 -4 20 -2 10 9 -18 18 -16 32 2 25 18 -7 20 15 3 32 -7
7 -8 12 -3 12 6 0 5 4 -1 8 -6 4 -45 59 -87 121 -76 114 -94 158 -36 88 38
-46 58 -49 32 -4 -11 17 -26 43 -34 57 -8 14 -17 27 -20 30 -4 3 -21 27 -38
54 l-31 50 0 -108z"/>
<path d="M167 5183 c-6 -15 -2 -31 10 -50 15 -23 18 -24 21 -9 2 10 -1 21 -6
25 -5 3 -12 17 -14 31 -4 25 -4 25 -11 3z"/>
<path d="M2517 5163 c-10 -19 -17 -63 -8 -63 4 0 11 14 15 32 6 31 3 47 -7 31z"/>
<path d="M1054 5064 c-16 -19 -36 -54 -45 -77 -9 -23 -21 -55 -28 -72 -41 -97
-46 -122 -45 -235 0 -112 3 -128 43 -234 7 -16 14 -26 17 -24 3 3 -2 23 -10
44 -36 94 -45 217 -25 316 23 111 62 213 114 291 25 39 12 33 -21 -9z"/>
<path d="M2500 4980 c0 -27 35 -112 74 -179 42 -72 149 -171 185 -171 11 0 8
5 -9 17 -14 10 -35 27 -47 38 -97 91 -92 84 -152 217 -17 37 -31 76 -31 88 0
11 -4 20 -10 20 -5 0 -10 -14 -10 -30z"/>
<path d="M7220 4993 c-37 -6 -100 -35 -100 -46 0 -5 10 -6 23 -3 81 23 134 36
149 36 9 0 20 5 23 10 6 10 -43 12 -95 3z"/>
<path d="M170 4891 c0 -5 7 -12 16 -15 14 -5 15 -4 4 9 -14 17 -20 19 -20 6z"/>
<path d="M3914 4652 c-22 -9 -52 -25 -65 -35 l-24 -18 25 5 c31 6 141 66 120
65 -8 0 -33 -8 -56 -17z"/>
<path d="M2801 4614 c6 -8 18 -14 26 -14 20 0 8 16 -17 23 -17 4 -19 3 -9 -9z"/>
<path d="M3740 4588 c-25 -5 -65 -12 -90 -15 -57 -6 -71 -19 -38 -33 20 -10
40 -7 111 15 120 36 130 57 17 33z"/>
<path d="M1090 4290 c0 -6 39 -50 87 -100 97 -100 134 -118 283 -141 l79 -12
-4 -51 c-4 -49 -4 -48 15 24 25 92 27 125 10 145 -14 17 -74 17 -76 0 -6 -42
-18 -55 -50 -55 -18 0 -45 5 -60 10 -35 14 -177 107 -232 154 -47 39 -52 41
-52 26z"/>
<path d="M2958 4240 c-14 -25 -50 -68 -80 -96 -29 -29 -58 -60 -64 -70 -16
-26 -93 -63 -134 -64 -33 0 -198 -82 -260 -129 -24 -19 -24 -19 30 -5 106 27
267 84 313 109 88 49 235 233 225 283 -2 12 -11 3 -30 -28z"/>
<path d="M3740 4220 c29 -56 134 -150 168 -150 5 0 -48 52 -122 121 -40 37
-55 46 -46 29z"/>
<path d="M5096 4170 c10 -51 24 -72 17 -25 -3 22 -10 44 -14 50 -6 5 -7 -5 -3
-25z"/>
<path d="M5122 4080 c0 -14 2 -19 5 -12 2 6 2 18 0 25 -3 6 -5 1 -5 -13z"/>
<path d="M4020 4020 c0 -11 63 -41 134 -65 121 -41 352 -75 501 -73 33 1 76
-4 95 -10 52 -15 106 -24 95 -14 -22 19 -218 67 -240 59 -8 -4 -58 5 -112 18
-85 20 -341 72 -440 89 -18 3 -33 1 -33 -4z"/>
<path d="M5141 3984 c0 -11 3 -14 6 -6 3 7 2 16 -1 19 -3 4 -6 -2 -5 -13z"/>
<path d="M1527 3923 c-4 -3 -7 -11 -7 -17 0 -6 5 -5 12 2 6 6 9 14 7 17 -3 3
-9 2 -12 -2z"/>
<path d="M1513 3850 c0 -25 2 -35 4 -22 2 12 2 32 0 45 -2 12 -4 2 -4 -23z"/>
<path d="M5179 3825 c-9 -14 13 -165 23 -165 4 0 8 12 8 28 -1 42 -25 148 -31
137z"/>
<path d="M1490 3758 c0 -49 5 -47 13 5 3 20 2 37 -4 37 -5 0 -9 -19 -9 -42z"/>
<path d="M2751 3735 c-45 -16 -20 -24 37 -12 29 6 58 5 87 -2 24 -6 52 -11 62
-11 16 1 15 3 -6 20 -27 23 -123 26 -180 5z"/>
<path d="M2660 3709 c0 -5 5 -7 10 -4 6 3 10 8 10 11 0 2 -4 4 -10 4 -5 0 -10
-5 -10 -11z"/>
<path d="M2590 3690 c-12 -8 -12 -10 5 -10 11 0 27 5 35 10 12 8 12 10 -5 10
-11 0 -27 -5 -35 -10z"/>
<path d="M4440 3688 c-38 -5 -75 -17 -90 -28 -14 -11 -43 -30 -65 -41 -76 -41
-95 -59 -95 -90 0 -24 4 -29 25 -29 30 0 30 0 8 -45 -9 -19 -14 -37 -11 -40 3
-3 22 5 43 19 54 37 180 82 263 95 72 11 156 6 147 -9 -3 -5 -36 -18 -75 -30
-73 -23 -115 -58 -137 -116 -6 -16 -23 -60 -38 -98 -14 -38 -29 -98 -32 -134
-6 -62 -5 -64 14 -54 16 9 22 25 27 76 6 64 27 129 45 140 12 8 41 -27 50 -60
5 -18 14 -28 24 -28 18 2 21 -12 17 -74 -1 -28 23 -102 34 -102 5 0 -3 142 -8
156 -3 7 3 22 11 34 13 19 17 20 24 7 7 -12 15 -9 46 20 21 19 47 38 57 42 22
8 87 -7 98 -23 4 -6 17 -3 32 7 35 23 53 21 81 -8 31 -30 32 -65 3 -121 -34
-69 -107 -82 -138 -24 -14 26 -12 50 5 84 18 35 19 55 3 58 -7 0 -20 2 -28 2
-8 1 -37 -10 -65 -24 -72 -38 -97 -85 -93 -172 3 -58 1 -67 -15 -72 -10 -2
-27 4 -38 15 -13 13 -27 18 -39 14 -10 -3 -38 3 -62 14 -30 14 -44 16 -47 8
-2 -7 -10 -19 -18 -28 -12 -15 -11 -19 13 -38 15 -11 31 -21 37 -21 6 0 19 -8
29 -17 17 -15 22 -15 74 1 51 16 57 16 73 2 26 -24 33 -20 26 14 -8 35 6 39
35 10 24 -24 34 -25 54 -4 10 9 24 13 35 9 11 -3 34 1 50 9 17 9 35 16 41 16
15 0 12 -33 -5 -56 -22 -29 -18 -34 25 -34 26 0 42 -6 50 -17 9 -16 11 -16 20
-3 5 8 13 20 17 27 4 6 23 13 41 16 19 3 36 8 38 10 3 2 9 29 14 60 5 31 14
65 19 76 6 11 8 46 5 83 l-5 63 26 -30 c42 -48 45 -64 29 -176 -8 -57 -12
-109 -10 -116 3 -7 1 -13 -4 -13 -4 0 -11 -13 -15 -30 -4 -16 -17 -45 -31 -65
-32 -47 -31 -59 4 -50 36 9 155 67 164 80 11 16 -8 18 -48 5 -19 -7 -38 -10
-41 -7 -3 3 2 27 10 54 9 26 23 86 32 133 9 47 20 89 25 95 4 5 11 25 15 43 5
26 16 38 48 53 104 50 142 77 150 110 5 17 1 19 -26 14 -23 -5 -45 1 -81 20
-27 14 -56 23 -64 20 -17 -6 -64 33 -56 47 9 14 8 138 0 176 -11 48 -23 30
-18 -26 2 -28 -1 -52 -6 -56 -6 -3 -41 10 -79 29 -67 34 -100 44 -89 26 4 -5
25 -19 49 -30 55 -27 143 -104 134 -118 -12 -19 -45 -3 -105 51 -32 28 -80 66
-106 84 -27 18 -44 37 -40 43 7 12 -13 29 -34 29 -8 0 -10 -5 -5 -12 4 -8 -3
-7 -17 3 -40 26 -159 58 -255 69 -102 11 -114 11 -205 -2z m480 -607 c0 -6 -4
-13 -10 -16 -5 -3 -10 1 -10 9 0 9 5 16 10 16 6 0 10 -4 10 -9z m257 -23 c-3
-7 -5 -2 -5 12 0 14 2 19 5 13 2 -7 2 -19 0 -25z m-217 3 c0 -10 -8 -25 -17
-32 -15 -12 -16 -12 -10 4 4 10 7 25 7 33 0 8 5 14 10 14 6 0 10 -8 10 -19z
m210 -67 c0 -14 -4 -23 -10 -19 -5 3 -10 15 -10 26 0 10 5 19 10 19 6 0 10
-12 10 -26z"/>
<path d="M2560 3647 c-52 -17 -97 -34 -100 -37 -3 -4 -12 -10 -20 -13 -12 -4
-11 -6 3 -6 9 -1 17 -4 17 -7 0 -3 -23 -32 -51 -65 -54 -61 -89 -76 -89 -37 0
12 -3 19 -6 16 -3 -3 -5 -24 -6 -47 0 -22 -7 -46 -14 -52 -22 -18 -122 -1
-163 27 -62 42 -67 29 -18 -48 19 -29 36 -61 40 -70 3 -10 11 -18 17 -18 7 0
25 -13 42 -30 16 -16 40 -30 53 -30 31 0 46 -21 52 -72 7 -64 43 -226 64 -286
24 -68 24 -72 -7 -72 -33 0 -27 -19 12 -40 34 -19 38 -27 101 -180 36 -85 49
-108 51 -89 2 14 -15 68 -37 119 -23 51 -41 100 -41 108 0 11 12 13 53 10 28
-2 60 -8 70 -12 14 -7 17 -3 17 17 0 13 -6 29 -13 35 -7 6 -26 38 -42 72 -28
59 -45 76 -45 44 0 -22 -38 -9 -72 25 -24 22 -30 42 -47 149 -11 67 -23 127
-26 132 -8 14 14 23 28 11 25 -20 56 1 101 69 80 121 150 184 252 226 l39 16
-44 -44 c-55 -54 -106 -133 -114 -175 -11 -55 11 -240 34 -289 22 -47 45 -62
29 -18 -14 36 -13 37 15 18 18 -11 46 -17 87 -16 50 1 66 -3 93 -24 17 -13 35
-24 38 -24 12 0 7 45 -7 66 -20 29 -25 101 -6 89 6 -3 10 -19 10 -34 0 -35 35
-87 78 -113 l32 -20 36 36 c20 20 40 36 45 36 5 0 18 9 29 20 l20 20 0 -23 c0
-13 3 -27 7 -31 4 -4 8 -17 8 -29 0 -12 7 -23 18 -25 14 -3 17 4 17 46 0 38
-7 61 -27 92 -25 38 -30 41 -61 35 -18 -3 -41 -3 -52 0 -26 8 -43 65 -34 120
l6 45 -27 -10 c-14 -5 -35 -15 -46 -20 -25 -14 -25 7 1 38 15 18 27 22 62 20
24 -1 55 2 71 6 25 8 28 5 48 -38 11 -25 23 -46 26 -46 10 0 -7 64 -40 144
-26 66 -45 93 -107 157 -60 62 -93 86 -160 118 -107 52 -162 54 -300 8z m154
-352 c-4 -8 -11 -15 -16 -15 -6 0 -5 6 2 15 7 8 14 15 16 15 2 0 1 -7 -2 -15z
m64 -75 c25 0 55 -50 56 -91 1 -31 -5 -46 -26 -66 l-28 -26 -47 24 c-60 30
-75 58 -70 132 4 73 18 84 66 51 20 -13 42 -24 49 -24z m122 -46 c0 -8 -4 -13
-9 -10 -5 4 -12 0 -14 -6 -3 -7 -6 -3 -6 10 -1 13 5 22 14 22 8 0 15 -7 15
-16z m-409 -336 c37 -20 58 -52 45 -66 -4 -3 -12 0 -18 6 -7 7 -24 12 -39 12
-29 0 -43 12 -53 48 -10 29 13 29 65 0z"/>
<path d="M2368 3609 c-28 -16 -21 -30 7 -17 14 6 25 15 25 20 0 11 -11 10 -32
-3z"/>
<path d="M790 3284 c0 -10 11 -35 24 -54 13 -19 26 -45 30 -57 7 -21 36 -40
36 -24 0 5 -20 42 -45 82 -27 44 -45 65 -45 53z"/>
<path d="M900 3121 c0 -5 5 -13 10 -16 6 -3 10 -2 10 4 0 5 -4 13 -10 16 -5 3
-10 2 -10 -4z"/>
<path d="M750 3081 c0 -6 4 -13 10 -16 6 -3 7 1 4 9 -7 18 -14 21 -14 7z"/>
<path d="M920 3080 c0 -5 5 -10 11 -10 5 0 7 5 4 10 -3 6 -8 10 -11 10 -2 0
-4 -4 -4 -10z"/>
<path d="M950 3043 c0 -6 9 -21 21 -34 l20 -24 -17 30 c-24 39 -24 40 -24 28z"/>
<path d="M1405 2959 c-4 -6 -5 -12 -2 -15 2 -3 7 2 10 11 7 17 1 20 -8 4z"/>
<path d="M1447 2813 c-3 -5 -1 -17 4 -28 7 -17 8 -17 8 8 1 27 -4 34 -12 20z"/>
<path d="M1441 2734 c0 -11 3 -14 6 -6 3 7 2 16 -1 19 -3 4 -6 -2 -5 -13z"/>
<path d="M1100 2656 c0 -9 4 -24 9 -34 5 -9 12 -25 15 -36 4 -10 12 -16 19
-13 10 4 12 -3 9 -24 -2 -16 1 -35 7 -43 6 -7 9 -20 5 -29 -3 -8 -1 -18 5 -22
6 -3 11 -17 11 -30 0 -18 4 -23 15 -19 11 5 13 2 9 -9 -3 -9 1 -26 10 -39 9
-12 16 -31 16 -40 0 -10 4 -26 9 -36 5 -9 18 -38 28 -64 10 -27 21 -48 26 -48
4 0 7 -7 7 -15 0 -8 4 -23 9 -33 5 -9 15 -32 22 -51 12 -33 13 -33 22 -10 14
35 25 109 15 103 -4 -3 -8 4 -8 15 0 11 -4 23 -10 26 -5 3 -10 13 -10 21 0 16
-117 265 -129 274 -3 3 -13 19 -21 35 -19 39 -53 89 -63 93 -4 2 -5 7 -2 12 3
4 -2 13 -10 20 -12 10 -15 9 -15 -4z m223 -400 c4 -10 1 -13 -9 -9 -7 3 -14 9
-14 14 0 14 17 10 23 -5z"/>
<path d="M4991 2651 c-9 -16 -6 -19 18 -24 16 -3 36 -13 44 -22 17 -17 37 -20
37 -6 0 9 -73 71 -84 71 -3 0 -10 -8 -15 -19z"/>
<path d="M2646 2645 c-3 -8 -12 -15 -20 -15 -8 0 -17 -4 -20 -8 -2 -4 31 -8
75 -7 85 0 103 9 39 20 -22 4 -42 11 -46 16 -8 14 -21 11 -28 -6z"/>
<path d="M1481 2619 c-1 -9 4 -31 10 -48 9 -24 14 -29 20 -19 6 9 9 1 10 -22
0 -19 7 -51 15 -70 l14 -35 -5 45 c-8 63 -33 143 -35 110 -1 -21 -4 -18 -15
15 -7 22 -13 33 -14 24z"/>
<path d="M4813 2572 c-9 -6 -8 -16 7 -40 20 -33 47 -45 36 -16 -3 9 -6 27 -6
40 0 24 -14 30 -37 16z"/>
<path d="M6791 2495 c0 -11 4 -27 9 -35 9 -13 10 -13 9 0 0 8 -4 24 -9 35 l-9
20 0 -20z"/>
<path d="M345 2380 c-3 -5 -2 -10 4 -10 5 0 13 5 16 10 3 6 2 10 -4 10 -5 0
-13 -4 -16 -10z"/>
<path d="M1570 2372 c0 -5 7 -15 15 -22 8 -7 15 -8 15 -2 0 5 -7 15 -15 22 -8
7 -15 8 -15 2z"/>
<path d="M1611 2310 c0 -8 4 -22 9 -30 12 -18 12 -2 0 25 -6 13 -9 15 -9 5z"/>
<path d="M2610 2295 c0 -12 41 -81 65 -110 36 -43 31 -22 -11 46 -32 54 -54
79 -54 64z"/>
<path d="M2755 2080 c3 -5 11 -10 16 -10 6 0 7 5 4 10 -3 6 -11 10 -16 10 -6
0 -7 -4 -4 -10z"/>
<path d="M2905 1950 c46 -52 135 -98 135 -70 0 6 -5 10 -11 10 -6 0 -29 13
-52 29 -23 15 -53 34 -67 41 l-25 13 20 -23z"/>
<path d="M2260 1952 c0 -17 40 -46 50 -36 6 6 -1 16 -20 27 -17 10 -30 14 -30
9z"/>
<path d="M5870 1695 c-8 -9 -8 -15 -2 -15 12 0 26 19 19 26 -2 2 -10 -2 -17
-11z"/>
<path d="M3446 1658 c-19 -26 -14 -33 12 -19 25 13 119 17 151 7 16 -6 21 -5
17 3 -9 15 -73 31 -123 31 -32 0 -46 -5 -57 -22z"/>
<path d="M5065 1571 c-6 -5 -28 -14 -50 -21 -22 -7 -53 -20 -70 -30 -44 -26
-171 -67 -242 -79 -69 -11 -210 0 -308 23 -33 8 -62 13 -64 11 -2 -3 10 -17
27 -33 39 -37 181 -80 284 -86 77 -5 79 -5 170 41 116 58 191 105 237 149 20
19 34 34 31 34 -4 0 -10 -4 -15 -9z"/>
<path d="M30 1480 c0 -6 7 -10 15 -10 19 0 19 6 0 14 -8 3 -15 1 -15 -4z"/>
<path d="M79 1467 c5 -5 26 -7 47 -5 l39 3 -47 5 c-26 3 -43 1 -39 -3z"/>
<path d="M5700 1401 c0 -6 5 -13 10 -16 6 -3 10 1 10 9 0 9 -4 16 -10 16 -5 0
-10 -4 -10 -9z"/>
<path d="M5591 1294 c0 -11 3 -14 6 -6 3 7 2 16 -1 19 -3 4 -6 -2 -5 -13z"/>
<path d="M5305 1063 c27 -445 74 -779 141 -1010 l15 -53 315 0 315 0 142 49
c78 27 165 54 193 61 48 12 50 14 47 44 -8 68 -12 76 -36 72 -19 -2 -22 -10
-25 -49 -4 -65 -20 -59 -24 10 -2 46 -6 57 -22 59 -14 2 -16 0 -7 -9 6 -6 11
-21 11 -34 0 -21 -5 -23 -45 -23 -35 0 -43 -3 -39 -15 7 -18 45 -20 62 -3 17
17 28 2 12 -17 -7 -8 -29 -15 -49 -15 -22 0 -31 -3 -23 -8 10 -7 -98 -51 -219
-89 -18 -5 -29 21 -29 70 0 22 -4 27 -25 27 -57 0 -95 79 -61 125 12 17 12 24
-5 57 -10 20 -25 41 -31 45 -28 18 -87 103 -127 183 -49 97 -103 178 -204 303
-67 83 -96 103 -113 76 -4 -7 -17 9 -31 39 -13 27 -36 58 -51 68 -42 27 -62
55 -62 86 0 18 -5 28 -15 28 -12 0 -14 -14 -10 -77z m565 -753 c13 -24 13 -70
0 -70 -5 0 -10 9 -10 21 0 34 -19 59 -45 59 -26 0 -42 16 -23 23 20 7 68 -13
78 -33z m-140 -21 c0 -18 5 -20 27 -16 35 7 53 -1 53 -23 0 -10 7 -23 16 -30
47 -39 -23 -110 -108 -110 -103 0 -150 49 -112 119 34 64 124 107 124 60z
m108 -16 c2 -13 -1 -23 -7 -23 -6 0 -11 7 -11 15 0 7 -8 19 -17 25 -16 9 -15
10 7 8 17 -2 26 -10 28 -25z m608 -90 c-2 -9 -8 -19 -14 -21 -6 -2 -8 5 -5 17
6 25 22 28 19 4z"/>
<path d="M5644 217 c-21 -19 -26 -29 -21 -49 14 -53 118 -60 157 -11 50 64
-70 116 -136 60z m94 -41 c-3 -26 -8 -32 -33 -34 -51 -6 -70 50 -21 67 37 14
57 2 54 -33z"/>
<path d="M5688 183 c-19 -5 -24 -18 -10 -27 5 -3 16 4 25 15 17 19 16 20 -15
12z"/>
<path d="M5684 1120 c-28 -11 -39 -29 -26 -42 14 -14 38 4 45 32 3 11 4 20 4
19 -1 0 -12 -4 -23 -9z"/>
<path d="M5706 1076 c-31 -42 -31 -42 -6 -49 24 -6 51 17 44 37 -3 8 -1 17 5
21 16 9 14 25 -3 25 -7 0 -25 -15 -40 -34z"/>
<path d="M7875 1040 c3 -5 11 -10 16 -10 6 0 7 5 4 10 -3 6 -11 10 -16 10 -6
0 -7 -4 -4 -10z"/>
<path d="M7913 1016 c4 -14 47 -21 47 -8 0 5 -11 12 -25 15 -16 3 -24 0 -22
-7z"/>
<path d="M6806 305 c-11 -8 -15 -15 -9 -15 6 0 16 7 23 15 16 19 11 19 -14 0z"/>
<path d="M6900 303 c0 -7 7 -13 15 -13 8 0 15 6 15 13 0 8 -7 14 -15 14 -8 0
-15 -6 -15 -14z"/>
<path d="M7195 310 c-3 -5 1 -10 10 -10 9 0 13 5 10 10 -3 6 -8 10 -10 10 -2
0 -7 -4 -10 -10z"/>
<path d="M7267 299 c7 -7 15 -10 18 -7 3 3 -2 9 -12 12 -14 6 -15 5 -6 -5z"/>
<path d="M7370 302 c0 -6 -8 -13 -17 -15 -16 -4 -16 -5 -1 -6 18 -1 34 16 24
26 -3 4 -6 1 -6 -5z"/>
<path d="M7545 300 c3 -5 11 -10 16 -10 6 0 7 5 4 10 -3 6 -11 10 -16 10 -6 0
-7 -4 -4 -10z"/>
<path d="M7616 299 c2 -4 13 -7 24 -6 23 2 17 10 -10 12 -10 1 -17 -2 -14 -6z"/>
<path d="M6830 295 c0 -3 7 -17 16 -31 12 -18 15 -37 11 -74 -7 -59 3 -63 44
-19 28 30 39 69 19 69 -5 0 -10 -9 -10 -19 0 -11 -4 -23 -10 -26 -6 -4 -10 8
-10 29 0 25 5 36 18 39 9 2 7 3 -6 2 -12 -1 -25 2 -28 7 -3 4 -10 6 -15 3 -5
-4 -9 1 -9 9 0 9 -4 16 -10 16 -5 0 -10 -2 -10 -5z"/>
<path d="M7406 288 c3 -4 9 -8 15 -8 5 0 9 4 9 8 0 5 -7 9 -15 9 -8 0 -12 -4
-9 -9z"/>
<path d="M6729 273 c-13 -16 -12 -17 4 -4 9 7 17 15 17 17 0 8 -8 3 -21 -13z"/>
<path d="M7780 283 c0 -4 5 -15 10 -23 8 -13 10 -13 10 2 0 9 -4 20 -10 23 -5
3 -10 3 -10 -2z"/>
<path d="M6556 265 c-3 -9 0 -15 9 -15 8 0 15 -4 15 -10 0 -5 -7 -10 -15 -10
-11 0 -15 -11 -15 -40 0 -22 2 -40 4 -40 2 0 11 -3 20 -6 11 -4 16 0 16 14 0
24 15 37 55 46 26 7 28 9 12 18 -11 6 -23 6 -30 0 -7 -5 -20 -12 -31 -16 -16
-5 -17 -3 -12 19 8 30 -18 66 -28 40z"/>
<path d="M7020 248 c3 -56 0 -78 -10 -78 -5 0 -10 23 -10 50 0 28 -4 50 -9 50
-6 0 -7 -16 -4 -35 4 -27 2 -36 -11 -41 -15 -6 -15 -9 5 -30 25 -27 15 -33
-13 -7 -17 15 -18 15 -18 -5 0 -23 9 -26 58 -16 l31 6 0 69 c-1 38 -5 69 -11
69 -5 0 -9 -15 -8 -32z"/>
<path d="M7141 270 c-1 -8 -3 -44 -4 -80 -2 -59 -4 -65 -24 -68 -13 -2 -23 1
-23 7 0 6 7 11 15 11 10 0 15 10 15 26 0 21 -3 24 -14 15 -11 -9 -15 -5 -18
26 -3 21 0 44 6 52 8 10 6 12 -8 10 -15 -3 -19 -16 -22 -69 -3 -39 -10 -69
-18 -74 -10 -7 13 -19 78 -42 50 -17 122 -43 161 -58 79 -29 197 -38 160 -12
-55 38 -190 106 -211 106 -28 0 -32 16 -6 23 9 3 2 5 -15 6 -23 1 -33 -4 -33
-14 0 -8 -4 -15 -10 -15 -5 0 -10 23 -10 50 l0 50 50 0 c51 0 52 -1 53 -48 0
-37 11 -15 12 26 l1 37 -62 -3 c-62 -4 -63 -3 -67 25 -2 15 -5 21 -6 13z"/>
<path d="M7178 273 c7 -3 16 -2 19 1 4 3 -2 6 -13 5 -11 0 -14 -3 -6 -6z"/>
<path d="M7228 273 c7 -3 16 -2 19 1 4 3 -2 6 -13 5 -11 0 -14 -3 -6 -6z"/>
<path d="M7270 265 c0 -8 4 -15 9 -15 5 0 8 -16 7 -37 -1 -25 4 -38 14 -40 13
-4 13 -3 0 6 -10 7 -11 11 -2 11 6 0 12 6 12 14 0 8 -6 17 -12 19 -10 4 -10 6
0 6 19 1 14 31 -5 31 -15 0 -16 2 -3 10 13 8 12 10 -2 10 -10 0 -18 -7 -18
-15z"/>
<path d="M7823 273 c-18 -7 -16 -23 2 -23 8 0 15 7 15 15 0 8 -1 15 -2 14 -2
0 -9 -3 -15 -6z"/>
<path d="M6013 263 c9 -2 25 -2 35 0 9 3 1 5 -18 5 -19 0 -27 -2 -17 -5z"/>
<path d="M6115 253 c-10 -22 -14 -41 -17 -73 -1 -14 -7 -29 -13 -33 -6 -5 -4
-7 5 -4 8 2 20 -2 25 -10 7 -9 11 9 13 62 3 77 0 88 -13 58z"/>
<path d="M6152 243 c3 -32 25 -40 53 -19 16 12 17 16 6 30 -7 9 -24 16 -38 16
-21 0 -24 -4 -21 -27z m38 -8 c0 -8 -4 -15 -10 -15 -5 0 -7 7 -4 15 4 8 8 15
10 15 2 0 4 -7 4 -15z"/>
<path d="M6240 244 c0 -15 -7 -35 -16 -45 -15 -16 -14 -17 7 -12 15 4 20 3 15
-5 -4 -7 -3 -12 2 -12 16 0 20 73 5 88 -11 11 -13 9 -13 -14z"/>
<path d="M6315 260 c4 -6 11 -8 16 -5 14 9 11 15 -7 15 -8 0 -12 -5 -9 -10z"/>
<path d="M6437 259 c7 -7 15 -10 18 -7 3 3 -2 9 -12 12 -14 6 -15 5 -6 -5z"/>
<path d="M6485 260 c-3 -5 -3 -15 1 -22 4 -6 6 -35 5 -64 -2 -49 -1 -52 18
-47 18 4 21 13 21 53 0 29 -5 51 -12 54 -10 5 -10 7 0 12 6 3 12 10 12 15 0
12 -37 12 -45 -1z"/>
<path d="M6630 260 c-13 -8 -13 -10 2 -10 9 0 20 5 23 10 8 13 -5 13 -25 0z"/>
<path d="M6756 248 c-20 -29 -20 -62 0 -82 20 -20 55 -21 48 -2 -3 9 1 13 13
13 12 -1 19 6 21 20 4 26 -15 66 -28 58 -5 -3 -11 -1 -15 5 -10 16 -23 12 -39
-12z"/>
<path d="M7510 266 c0 -2 11 -6 25 -8 14 -3 25 -1 25 3 0 5 -11 9 -25 9 -14 0
-25 -2 -25 -4z"/>
<path d="M7593 263 c9 -2 23 -2 30 0 6 3 -1 5 -18 5 -16 0 -22 -2 -12 -5z"/>
<path d="M7860 260 c0 -5 7 -10 16 -10 8 0 12 5 9 10 -3 6 -10 10 -16 10 -5 0
-9 -4 -9 -10z"/>
<path d="M5960 241 c-27 -51 3 -91 66 -90 30 0 34 2 19 8 -11 5 -23 7 -27 4
-4 -2 -17 1 -29 7 -21 12 -22 30 -4 73 10 24 -12 22 -25 -2z"/>
<path d="M6062 231 c-16 -46 -15 -59 4 -39 9 9 14 27 12 44 l-3 29 -13 -34z"/>
<path d="M7178 253 c7 -3 16 -2 19 1 4 3 -2 6 -13 5 -11 0 -14 -3 -6 -6z"/>
<path d="M7220 250 c0 -5 7 -7 15 -4 8 4 15 8 15 10 0 2 -7 4 -15 4 -8 0 -15
-4 -15 -10z"/>
<path d="M7330 250 c0 -5 11 -10 25 -10 14 0 25 5 25 10 0 6 -11 10 -25 10
-14 0 -25 -4 -25 -10z"/>
<path d="M7400 250 c0 -5 11 -10 25 -10 14 0 25 5 25 10 0 6 -11 10 -25 10
-14 0 -25 -4 -25 -10z"/>
<path d="M6690 200 c0 -44 2 -50 21 -50 15 0 19 4 15 16 -3 9 -6 28 -6 44 0
16 -7 30 -15 34 -12 4 -15 -4 -15 -44z"/>
<path d="M7727 225 c-4 -25 -4 -25 14 -9 22 20 24 34 5 34 -7 0 -16 -11 -19
-25z"/>
<path d="M6000 225 c-13 -16 -7 -45 9 -45 5 0 14 14 20 30 8 24 7 30 -3 30 -8
0 -19 -7 -26 -15z"/>
<path d="M6950 225 c0 -8 5 -15 10 -15 6 0 10 7 10 15 0 8 -4 15 -10 15 -5 0
-10 -7 -10 -15z"/>
<path d="M7474 216 c0 -14 4 -22 8 -20 4 3 8 14 8 25 0 10 -4 19 -8 19 -4 0
-8 -11 -8 -24z"/>
<path d="M7530 233 c0 -5 36 -8 79 -8 44 0 74 3 68 7 -16 10 -147 10 -147 1z"/>
<path d="M7786 232 c-3 -6 -1 -14 5 -17 14 -9 20 -2 10 14 -6 8 -11 9 -15 3z"/>
<path d="M6290 215 c-11 -13 -8 -15 19 -15 33 0 42 14 15 24 -21 8 -20 8 -34
-9z"/>
<path d="M7100 219 c0 -5 5 -7 10 -4 6 3 10 8 10 11 0 2 -4 4 -10 4 -5 0 -10
-5 -10 -11z"/>
<path d="M7814 208 c1 -13 -2 -31 -6 -40 -7 -14 -4 -18 12 -18 17 0 20 6 20
40 0 27 -4 40 -14 40 -8 0 -13 -9 -12 -22z"/>
<path d="M7860 210 c0 -11 6 -20 13 -20 7 0 13 9 14 20 1 11 -4 20 -13 20 -8
0 -14 -9 -14 -20z"/>
<path d="M7336 212 c-13 -12 -5 -22 19 -22 14 0 25 4 25 9 0 10 -36 21 -44 13z"/>
<path d="M7180 199 c0 -5 12 -9 27 -9 30 0 27 9 -6 15 -11 2 -21 0 -21 -6z"/>
<path d="M7400 200 c0 -5 11 -10 25 -10 14 0 25 5 25 10 0 6 -11 10 -25 10
-14 0 -25 -4 -25 -10z"/>
<path d="M7509 205 c-1 -3 -3 -8 -4 -12 -1 -5 -6 -23 -10 -40 -4 -18 -11 -33
-16 -33 -5 0 -6 -7 -3 -15 5 -11 9 -12 19 -2 7 7 12 16 12 21 -1 5 9 12 22 15
25 7 42 31 21 31 -6 0 -18 6 -26 14 -11 11 -11 16 -1 19 9 4 9 6 0 6 -7 1 -14
-1 -14 -4z m21 -46 c0 -5 -7 -9 -15 -9 -9 0 -12 6 -9 15 6 15 24 11 24 -6z"/>
<path d="M7562 198 c4 -11 29 -14 76 -9 6 0 12 6 12 11 0 6 -21 10 -46 10 -31
0 -44 -4 -42 -12z"/>
<path d="M7676 202 c-3 -5 1 -9 9 -9 8 0 12 4 9 9 -3 4 -7 8 -9 8 -2 0 -6 -4
-9 -8z"/>
<path d="M7772 158 c1 -26 5 -45 10 -42 5 3 6 10 2 15 -3 5 -1 16 5 23 8 9 7
18 -4 32 -14 18 -15 15 -13 -28z"/>
<path d="M887 183 c-4 -3 -7 -18 -7 -32 1 -25 1 -25 15 -7 23 30 15 63 -8 39z"/>
<path d="M6150 170 c0 -11 2 -20 5 -20 3 0 14 9 25 20 l20 20 -25 0 c-18 0
-25 -5 -25 -20z"/>
<path d="M6624 176 c-10 -8 -16 -18 -12 -21 12 -12 58 4 58 20 0 19 -20 19
-46 1z"/>
<path d="M7186 171 c-3 -4 6 -6 19 -3 14 2 25 6 25 8 0 8 -39 4 -44 -5z"/>
<path d="M7658 173 c-20 -5 -24 -28 -8 -38 6 -3 13 2 17 12 4 10 11 21 17 25
12 8 2 9 -26 1z"/>
<path d="M7731 162 c-7 -14 -6 -19 3 -19 6 0 13 9 13 19 2 23 -4 23 -16 0z"/>
<path d="M6916 161 c-4 -7 -5 -15 -2 -18 9 -9 19 4 14 18 -4 11 -6 11 -12 0z"/>
<path d="M7333 155 c6 -17 47 -18 47 -1 0 11 -8 15 -25 14 -14 -1 -24 -7 -22
-13z"/>
<path d="M7400 154 c0 -11 8 -14 32 -12 46 4 49 28 4 28 -26 0 -36 -4 -36 -16z"/>
<path d="M7586 152 c-4 -11 -18 -25 -31 -32 -14 -7 -23 -15 -20 -18 2 -3 16 3
29 12 30 19 40 21 30 4 -4 -7 -3 -8 4 -4 14 9 16 56 3 56 -5 0 -12 -8 -15 -18z"/>
<path d="M7860 160 c0 -6 7 -10 15 -10 8 0 15 2 15 4 0 2 -7 6 -15 10 -8 3
-15 1 -15 -4z"/>
<path d="M7370 120 c0 -5 5 -10 11 -10 5 0 7 5 4 10 -3 6 -8 10 -11 10 -2 0
-4 -4 -4 -10z"/>
<path d="M7802 125 c2 -3 18 -6 34 -8 17 -2 35 -7 42 -11 8 -5 10 -2 6 8 -4
11 -19 16 -47 16 -22 0 -38 -2 -35 -5z"/>
<path d="M7400 110 c0 -5 4 -10 9 -10 6 0 13 5 16 10 3 6 -1 10 -9 10 -9 0
-16 -4 -16 -10z"/>
<path d="M7444 111 c4 -5 0 -12 -6 -14 -8 -3 -6 -6 5 -6 9 -1 17 6 17 14 0 8
-5 15 -11 15 -5 0 -8 -4 -5 -9z"/>
<path d="M7636 103 c-6 -14 -5 -15 5 -6 7 7 10 15 7 18 -3 3 -9 -2 -12 -12z"/>
<path d="M881 74 c0 -11 3 -14 6 -6 3 7 2 16 -1 19 -3 4 -6 -2 -5 -13z"/>
</g>
</svg>
